<?xml version="1.0" encoding="utf-8"?>
<!-- Generator: Adobe Illustrator 19.0.0, SVG Export Plug-In . SVG Version: 6.00 Build 0)  -->
<svg version="1.1" id="Слой_1" xmlns="http://www.w3.org/2000/svg" xmlns:xlink="http://www.w3.org/1999/xlink" x="0px" y="0px"
	 viewBox="-363.7 249.5 88.3 79.8" style="enable-background:new -363.7 249.5 88.3 79.8;" xml:space="preserve">
<g>
	<path d="M-339.3,249.9L-339.3,249.9c-4.3,0-8.2,1.7-11.2,4.7c-6.2,6.2-6.2,16.3,0,22.4l52.3,52.3l22.2-0.2l0.2-22.2l-52.3-52.4
		C-331.1,251.5-335.1,249.9-339.3,249.9z M-345.6,259.5c1.7-1.7,3.9-2.6,6.3-2.6l0,0c2.4,0,4.6,0.9,6.3,2.6l45.8,45.8l-12.6,12.5
		l-45.8-45.8C-349.1,268.6-349.1,262.9-345.6,259.5z M-294.3,322.2l11.4-11.4l-0.1,11.3L-294.3,322.2z"/>
	<rect x="-363.7" y="324.3" width="45" height="5"/>
</g>
</svg>
