<?xml version="1.0" encoding="UTF-8" standalone="no"?>
<svg width="39px" height="47px" viewBox="0 0 39 47" version="1.1" xmlns="http://www.w3.org/2000/svg" xmlns:xlink="http://www.w3.org/1999/xlink">
    <!-- Generator: Sketch 3.6.1 (26313) - http://www.bohemiancoding.com/sketch -->
    <title>Shape</title>
    <desc>Created with Sketch.</desc>
    <defs></defs>
    <g id="Page-1" stroke="none" stroke-width="1" fill="none" fill-rule="evenodd">
        <g id="Main" transform="translate(-973.000000, -3588.000000)" fill="#FFFFFF">
            <g id="Group-5" transform="translate(971.000000, 3588.000000)">
                <path d="M17.2545467,34.9758333 C17.2686467,35.0040333 17.2843134,35.0306667 17.3020689,35.0567778 C17.3041578,35.0604333 17.3067689,35.0630444 17.3088578,35.0661778 C17.32348,35.0870667 17.3407134,35.1074333 17.3579467,35.1267556 C17.3636912,35.1340667 17.3699578,35.1413778 17.3762245,35.1481667 C17.3945023,35.1674889 17.4138245,35.1852444 17.4347134,35.2035222 C17.4383689,35.2066556 17.4425467,35.2092667 17.4462023,35.2134444 C17.4665689,35.2296333 17.48798,35.2447778 17.5104356,35.2583556 C17.5167023,35.2630556 17.5234912,35.2667111 17.53028,35.2708889 C17.5532578,35.2839444 17.5767578,35.2964778 17.60078,35.3069222 C17.6033912,35.3084889 17.6060023,35.3100556 17.6091356,35.3105778 C17.6368134,35.3225889 17.6644912,35.3330333 17.6942578,35.3419111 C17.69948,35.3429556 17.7052245,35.3450444 17.7104467,35.3460889 C17.7339467,35.3518333 17.7579689,35.3570556 17.7819912,35.3612333 C17.7898245,35.3617556 17.7971356,35.3628 17.8054912,35.3648889 C17.8331689,35.3680222 17.8603245,35.3701111 17.8885245,35.3701111 L17.8947912,35.3701111 L17.8974023,35.3701111 L24.3541578,35.3701111 L24.3562467,35.3701111 L24.3630356,35.3701111 C24.3901912,35.3701111 24.4173467,35.3685444 24.4445023,35.3648889 C24.4523356,35.3643667 24.4601689,35.3622778 24.46748,35.3612333 C24.49098,35.3575778 24.5139578,35.3523556 24.5364134,35.3466111 C24.54268,35.3455667 24.5479023,35.3434778 24.5546912,35.3424333 C24.5834134,35.3335556 24.6116134,35.3241556 24.6387689,35.3121444 L24.6398134,35.3121444 C24.6654023,35.3006556 24.6915134,35.2876 24.7155356,35.2735 C24.7233689,35.2693222 24.7296356,35.2646222 24.7369467,35.2609667 C24.7562689,35.2489556 24.7740245,35.2353778 24.7923023,35.2223222 C24.7975245,35.2181444 24.8032689,35.2139667 24.8095356,35.2097889 C24.8309467,35.1920333 24.8507912,35.1732333 24.8695912,35.1533889 C24.8769023,35.1466 24.8816023,35.1408556 24.8883912,35.1335444 C24.9035356,35.1173556 24.9181578,35.0996 24.9312134,35.0802778 C24.9359134,35.0745333 24.9400912,35.0693111 24.9442689,35.0635667 C24.96098,35.0385 24.9766467,35.0118667 24.9917912,34.9862778 C24.9923134,34.9841889 24.9928356,34.9831444 24.9933578,34.9821 L30.3163689,24.5862222 C30.4960134,24.2342444 30.3571023,23.8039333 30.0046023,23.6232444 C29.6526245,23.4425556 29.2212689,23.5819889 29.0411023,23.9334444 L23.9191467,33.9381778 L21.8412245,33.9381778 L21.8412245,28.4553667 C21.8412245,28.0595222 21.5216245,27.7388778 21.1252578,27.7388778 C20.7294134,27.7388778 20.4092912,28.0595222 20.4092912,28.4553667 L20.4092912,33.9381778 L18.3407689,33.9381778 L13.4590356,23.9459778 C13.2851356,23.5898222 12.8563912,23.4436 12.50128,23.6169778 C12.1456467,23.7908778 11.99838,24.2191 12.1717578,24.5747333 L17.2503689,34.9685222 C17.2514134,34.9711333 17.2535023,34.9742667 17.2545467,34.9758333 L17.2545467,34.9758333 Z M24.3567689,39.3687667 L17.8937467,39.3687667 C17.4984245,39.3687667 17.1783023,39.6894111 17.1783023,40.0857778 L17.1783023,46.2845556 C17.1783023,46.6793556 17.4984245,47 17.8937467,47 C18.2901134,47 18.6102356,46.6793556 18.6102356,46.2845556 L18.6102356,40.8007 L20.4092912,40.8007 L20.4092912,46.2845556 C20.4092912,46.6793556 20.7294134,47 21.1252578,47 C21.5216245,47 21.8412245,46.6793556 21.8412245,46.2845556 L21.8412245,40.8007 L23.64028,40.8007 L23.64028,46.2845556 C23.64028,46.6793556 23.9609245,47 24.3562467,47 C24.7520912,47 25.0722134,46.6793556 25.0722134,46.2845556 L25.0722134,40.0857778 C25.0727356,39.6894111 24.7520912,39.3687667 24.3567689,39.3687667 L24.3567689,39.3687667 Z M24.2246467,36.6532111 L18.0258689,36.6532111 C17.6305467,36.6532111 17.3099023,36.9749 17.3099023,37.3697 C17.3099023,37.7655444 17.6305467,38.0861889 18.0258689,38.0861889 L24.2246467,38.0861889 C24.6210134,38.0861889 24.9411356,37.7655444 24.9411356,37.3697 C24.9411356,36.9749 24.6204912,36.6532111 24.2246467,36.6532111 L24.2246467,36.6532111 Z M27.2373467,36.8683667 C27.2321245,36.8621 27.2258578,36.8574 27.2195912,36.8521778 C27.2101912,36.8427778 27.2018356,36.8344222 27.1919134,36.8260667 C27.1819912,36.8177111 27.1725912,36.8104 27.1626689,36.8030889 C27.1532689,36.7963 27.1459578,36.7905556 27.13708,36.7837667 C27.1261134,36.7754111 27.1141023,36.7686222 27.1026134,36.7613111 C27.09478,36.7566111 27.0874689,36.7513889 27.0796356,36.7477333 C27.0671023,36.7404222 27.0545689,36.7341556 27.0415134,36.7273667 C27.03368,36.7231889 27.0253245,36.7190111 27.0174912,36.7158778 C27.0049578,36.7101333 26.9924245,36.7054333 26.9793689,36.7017778 C26.9699689,36.6981222 26.9605689,36.6939444 26.9516912,36.6913333 C26.93968,36.6866333 26.9271467,36.6829778 26.9156578,36.6803667 C26.9046912,36.6772333 26.8942467,36.6751444 26.88328,36.6720111 C26.8717912,36.6694 26.8603023,36.6673111 26.8482912,36.6652222 C26.8373245,36.6631333 26.8253134,36.6615667 26.8143467,36.66 C26.8028578,36.6589556 26.7913689,36.6568667 26.7804023,36.6563444 C26.7694356,36.6558222 26.7574245,36.6553 26.7448912,36.6537333 C26.7334023,36.6537333 26.7208689,36.6537333 26.7088578,36.6553 C26.6978912,36.6553 26.6869245,36.6558222 26.6759578,36.6563444 C26.6629023,36.6568667 26.6488023,36.6589556 26.6357467,36.6605222 C26.6284356,36.6615667 26.6216467,36.6626111 26.6132912,36.6631333 C26.6117245,36.6636556 26.6085912,36.6641778 26.60598,36.6641778 C26.5924023,36.6673111 26.5772578,36.6704444 26.56368,36.6735778 C26.55428,36.6761889 26.5459245,36.6788 26.5360023,36.6803667 C26.5234689,36.6840222 26.5104134,36.6887222 26.4973578,36.6929 C26.4879578,36.6960333 26.4780356,36.6991667 26.4686356,36.7028222 C26.4576689,36.707 26.44618,36.7122222 26.4357356,36.7169222 C26.4252912,36.7216222 26.4148467,36.7263222 26.4044023,36.7315444 C26.3950023,36.7362444 26.3861245,36.7414667 26.3772467,36.7456444 C26.3657578,36.7524333 26.3537467,36.7587 26.34278,36.7670556 C26.3344245,36.7712333 26.3281578,36.7769778 26.3213689,36.7811556 C26.3083134,36.7895111 26.2963023,36.7978667 26.2848134,36.8072667 C26.2775023,36.8124889 26.27228,36.8187556 26.2654912,36.8234556 C26.2545245,36.8339 26.2419912,36.8438222 26.2315467,36.8542667 C26.2294578,36.8563556 26.2278912,36.8574 26.2258023,36.8589667 C26.2211023,36.8652333 26.21588,36.8699333 26.2117023,36.8751556 C26.2023023,36.8850778 26.19238,36.895 26.1835023,36.9054444 C26.1756689,36.9148444 26.16888,36.9232 26.1620912,36.9331222 C26.1542578,36.9425222 26.1479912,36.9508778 26.1412023,36.9608 C26.1338912,36.9712444 26.1271023,36.9816889 26.1197912,36.9926556 C26.1145689,37.0015333 26.1098689,37.0093667 26.1051689,37.0187667 C26.09838,37.0307778 26.0921134,37.0422667 26.0868912,37.0542778 C26.0821912,37.0631556 26.0774912,37.0725556 26.0738356,37.0814333 C26.0686134,37.0929222 26.0644356,37.1044111 26.0597356,37.1159 C26.05608,37.1268667 26.0519023,37.1362667 26.0487689,37.1472333 C26.0451134,37.1582 26.0414578,37.1691667 26.0383245,37.1796111 C26.0346689,37.1911 26.0320578,37.2041556 26.0289245,37.2156444 C26.0263134,37.2255667 26.0252689,37.2354889 26.0226578,37.2464556 C26.0210912,37.2584667 26.01848,37.2715222 26.0174356,37.2845778 C26.0158689,37.2945 26.0148245,37.3044222 26.0143023,37.3153889 C26.01378,37.3274 26.0122134,37.3404556 26.0122134,37.3529889 L26.0122134,37.3874556 C26.0127356,37.3984222 26.0127356,37.4104333 26.01378,37.4214 C26.0148245,37.4349778 26.0169134,37.4496 26.01848,37.4631778 C26.0190023,37.4704889 26.0190023,37.4772778 26.0210912,37.4840667 L26.78928,42.2399444 C26.8451578,42.5919222 27.1490912,42.8415444 27.4953245,42.8415444 C27.5329245,42.8415444 27.5715689,42.8384111 27.6102134,42.8321444 C28.0008356,42.7689556 28.2666467,42.4018333 28.2034578,42.0112111 L27.7929912,39.4753 L29.3847245,41.0941889 C29.52468,41.2357111 29.7095467,41.3077778 29.8949356,41.3077778 C30.0766689,41.3077778 30.25788,41.2393667 30.3973134,41.1020222 C30.6793134,40.8252444 30.6829689,40.3724778 30.4067134,40.0899556 L27.2373467,36.8683667 L27.2373467,36.8683667 Z M17.4086023,11.2147222 C17.9433578,10.9473444 18.4154467,10.5556778 18.7742134,10.0611333 C18.86508,9.93632222 18.9465467,9.80681111 19.02018,9.67468889 C18.6133689,9.20103333 18.3120467,8.65896667 18.1214356,8.08347778 C18.0812245,8.49551111 17.93448,8.90232222 17.6744134,9.26161111 C17.3626467,9.69035556 16.91928,9.99951111 16.4216023,10.1504333 C16.80648,10.4543667 17.1386134,10.8136556 17.4086023,11.2147222 L17.4086023,11.2147222 Z M15.7260023,5.4332 C16.2367356,5.4332 16.7260578,5.593 17.14018,5.89432222 C17.4676134,6.13193333 17.7172356,6.43795556 17.8843467,6.7774 C17.8603245,6.17057778 17.9511912,5.55592222 18.1653023,4.97051111 C18.0927134,4.90888889 18.0185578,4.84987778 17.9397023,4.79347778 C17.2916245,4.32191111 16.5255245,4.07228889 15.7260023,4.07228889 C14.5212356,4.07228889 13.3796578,4.65352222 12.6725689,5.62798889 C12.36968,6.0442 12.1613134,6.50741111 12.0495578,6.99412222 C12.17698,7.07036667 12.3023134,7.15183333 12.4245134,7.23956667 C12.7634356,7.48657778 13.0663245,7.77588889 13.3269134,8.09914444 C13.26268,7.50328889 13.4198689,6.91422222 13.7734134,6.42751111 C14.2256578,5.80502222 14.9557245,5.4332 15.7260023,5.4332 L15.7260023,5.4332 Z M9.90165782,5.16112222 C10.3586023,4.53288889 11.0954578,4.15741111 11.8740912,4.15741111 C12.0699245,4.15741111 12.2647134,4.18091111 12.4537578,4.22791111 C12.5075467,4.24096667 12.5613356,4.24723333 12.6156467,4.24723333 C12.7582134,4.24723333 12.8986912,4.20232222 13.0161912,4.1172 C13.17808,3.99917778 13.2799134,3.81587778 13.2945356,3.61638889 C13.3274356,3.16518889 13.4856689,2.73226667 13.7530467,2.36514444 C14.2094689,1.73586667 14.9473689,1.36038889 15.7260023,1.36038889 C16.2414356,1.36038889 16.7365023,1.52123333 17.1553245,1.82621111 C17.7355134,2.24764444 18.0995023,2.90146667 18.1517245,3.61847778 C18.1668689,3.81848889 18.2692245,4.00074444 18.4311134,4.11876667 C18.4645356,4.14383333 18.5016134,4.16472222 18.5392134,4.18247778 C18.6128467,4.05766667 18.6932689,3.93494444 18.7799578,3.81535556 C18.9653467,3.55998889 19.1758023,3.32603333 19.4050578,3.11662222 C19.4202023,3.10252222 19.4322134,3.09051111 19.4405689,3.08111111 C19.4405689,3.08111111 19.4353467,3.0174 19.4108023,2.9046 C19.4014023,2.85968889 19.3862578,2.80276667 19.3862578,2.80276667 C19.1617023,1.97347778 18.6608912,1.23975556 17.9543245,0.725366667 C17.3020689,0.250144444 16.5312689,0 15.7260023,0 C14.5134023,0 13.3645134,0.584366667 12.6522023,1.56457778 C12.37908,1.94005556 12.1790689,2.35887778 12.0584356,2.80172222 C11.9973356,2.79858889 11.9357134,2.79702222 11.8735689,2.79702222 C10.6609689,2.79702222 9.51260227,3.38191111 8.79976893,4.3616 C8.3078356,5.03944444 8.07440227,5.82695556 8.07805782,6.60663333 C8.51672449,6.45205556 8.97889116,6.36118889 9.45098005,6.34134444 C9.49484671,5.92931111 9.64054671,5.52093333 9.90165782,5.16112222 L9.90165782,5.16112222 Z M11.86208,12.0622889 C11.2140023,11.5907222 10.4484245,11.3416222 9.64890227,11.3416222 C8.4441356,11.3416222 7.30255782,11.9223333 6.59494671,12.8968 C6.00274671,13.7119889 5.76356893,14.7083889 5.92075782,15.7037444 C6.07899116,16.6980556 6.61426893,17.5722556 7.42945782,18.1644556 C8.07805782,18.6355 8.84415782,18.8851222 9.64315782,18.8851222 C10.8484467,18.8851222 11.9895023,18.3038889 12.6971134,17.3294222 C13.9191134,15.6473444 13.54468,13.2842889 11.86208,12.0622889 L11.86208,12.0622889 Z M11.5957467,16.5293778 C11.1440245,17.1523889 10.4134356,17.5236889 9.64315782,17.5236889 C9.13242449,17.5236889 8.64362449,17.3644111 8.22898005,17.0625667 C7.70780227,16.6839556 7.36574671,16.1251778 7.26495782,15.4896333 C7.16416893,14.8535667 7.31718005,14.2164556 7.69526893,13.6952778 C8.14699116,13.0733111 8.87758005,12.7014889 9.64838005,12.7014889 C10.1591134,12.7014889 10.6479134,12.8612889 11.0620356,13.1620889 C12.1383356,13.9438556 12.3769912,15.4546444 11.5957467,16.5293778 L11.5957467,16.5293778 Z M30.13568,7.03642222 C29.9450689,6.16535556 29.4489578,5.358 28.6724134,4.794 C28.0243356,4.32243333 27.2582356,4.07281111 26.4581912,4.07281111 C25.2544689,4.07281111 24.1123689,4.65404444 23.4047578,5.62851111 C22.81308,6.4437 22.57338,7.4401 22.7310912,8.43493333 C22.8893245,9.42976667 23.42408,10.3039667 24.2397912,10.8956444 C24.4246578,11.0303778 24.6189245,11.1447444 24.81998,11.2418778 C24.8549689,11.1880889 24.8920467,11.1353444 24.9301689,11.0836444 C25.1824023,10.7358444 25.4795467,10.4282556 25.8106356,10.1661 C25.5354245,10.0898556 25.2753578,9.96608889 25.0387912,9.7948 C24.5176134,9.41618889 24.17608,8.85793333 24.0742467,8.22186667 C23.9750245,7.58527778 24.1269912,6.94868889 24.5056023,6.42751111 C24.9573245,5.80502222 25.6879134,5.4332 26.4576689,5.4332 C26.9689245,5.4332 27.4577245,5.593 27.8728912,5.89432222 C28.6264578,6.44161111 28.9685134,7.34714444 28.8374356,8.21037778 C29.1962023,7.73672222 29.6385245,7.34035556 30.13568,7.03642222 L30.13568,7.03642222 Z M20.37378,9.66528889 C20.4249578,9.70184444 20.4756134,9.73787778 20.52888,9.77182222 C20.3330467,10.2872556 20.2573245,10.8308889 20.2944023,11.3661667 C20.5670023,11.3134222 20.8463912,11.2852222 21.1289134,11.2852222 C21.3054245,11.2852222 21.4803689,11.2961889 21.65218,11.3160333 C21.6114467,10.8131333 21.7242467,10.2940444 22.0067689,9.83814444 C22.1122578,9.6679 22.1378467,9.45953333 22.0762245,9.26944444 C22.0146023,9.07935556 21.8715134,8.92582222 21.6866467,8.84957778 C21.5043912,8.7749 21.3320578,8.67933333 21.1743467,8.56444444 C20.0881245,7.77484444 19.8458134,6.24838889 20.6359356,5.16112222 C21.0918356,4.53288889 21.8292134,4.15741111 22.6073245,4.15741111 C22.80368,4.15741111 22.9984689,4.18091111 23.1869912,4.22791111 C23.24078,4.24096667 23.2950912,4.24723333 23.3494023,4.24723333 C23.4914467,4.24723333 23.6324467,4.20232222 23.7499467,4.1172 C23.9118356,3.99917778 24.0136689,3.81587778 24.0282912,3.61638889 C24.0611912,3.16518889 24.2189023,2.73226667 24.48628,2.36462222 C24.9437467,1.73586667 25.6811245,1.36038889 26.4592356,1.36038889 C26.9757134,1.36038889 27.4702578,1.52123333 27.8885578,1.82621111 C28.4697912,2.24764444 28.8332578,2.90146667 28.88548,3.61847778 C28.9001023,3.81848889 29.00298,4.00074444 29.1638245,4.11876667 C29.2818467,4.20388889 29.4218023,4.2488 29.5643689,4.2488 C29.6181578,4.2488 29.6724689,4.24201111 29.7262578,4.22947778 C29.9168689,4.18195556 30.1137467,4.15845556 30.3106245,4.15845556 C30.8271023,4.15845556 31.3206023,4.3193 31.7389023,4.62323333 C32.3190912,5.04571111 32.6590578,5.67707778 32.7285134,6.33977778 C33.1995578,6.35178889 33.66068,6.43273333 34.1009134,6.57895556 C34.0941245,5.41074444 33.5541467,4.26081111 32.5394689,3.52238889 C31.8866912,3.04873333 31.1164134,2.79754444 30.3106245,2.79754444 C30.2479578,2.79754444 30.1842467,2.79911111 30.1205356,2.80224444 C29.8965023,1.97295556 29.3956912,1.23923333 28.6886023,0.724844444 C28.0337356,0.250144444 27.26398,0 26.4581912,0 C25.2455912,0 24.0967023,0.584366667 23.3843912,1.56457778 C23.1117912,1.94005556 22.9123023,2.35887778 22.7916689,2.80172222 C22.7300467,2.79858889 22.6689467,2.79702222 22.60628,2.79702222 C21.3942023,2.79702222 20.2453134,3.38191111 19.5330023,4.3616 C18.3031689,6.05568889 18.6796912,8.43441111 20.37378,9.66528889 L20.37378,9.66528889 Z M30.3879134,18.1639333 C31.0375578,18.6349778 31.8031356,18.8846 32.60318,18.8846 C33.8074245,18.8846 34.94848,18.3033667 35.6566134,17.3289 C36.2482912,16.5137111 36.4879912,15.5173111 36.3297578,14.523 C36.1725689,13.5276444 35.6372912,12.6534444 34.8221023,12.0617667 C34.17298,11.5902 33.4074023,11.3411 32.60788,11.3411 C31.4025912,11.3411 30.2620578,11.9218111 29.5544467,12.8962778 C28.9617245,13.7114667 28.7230689,14.7078667 28.8802578,15.7032222 C29.0379689,16.6980556 29.5742912,17.5717333 30.3879134,18.1639333 L30.3879134,18.1639333 Z M30.6558134,13.6963222 C31.1075356,13.0743556 31.8381245,12.7025333 32.60788,12.7025333 C33.1186134,12.7025333 33.6079356,12.8623333 34.0220578,13.1631333 C34.5432356,13.5417444 34.8858134,14.1005222 34.9871245,14.7360667 C35.0868689,15.3726556 34.93438,16.0097667 34.5562912,16.5304222 C34.1040467,17.1534333 33.3729356,17.5247333 32.6037023,17.5247333 C32.0924467,17.5247333 31.6036467,17.3654556 31.1890023,17.0636111 C30.6678245,16.685 30.3252467,16.1262222 30.2244578,15.4906778 C30.1236689,14.8540889 30.27668,14.2169778 30.6558134,13.6963222 L30.6558134,13.6963222 Z M38.6870689,10.7901556 C38.0342912,10.3159778 37.2645356,10.0658333 36.4592689,10.0658333 C36.3955578,10.0658333 36.3328912,10.0668778 36.2697023,10.0705333 C36.0441023,9.24072222 35.5443356,8.507 34.8372467,7.99261111 C34.1839467,7.51843333 33.4131467,7.26724444 32.60788,7.26724444 C31.39528,7.26724444 30.2463912,7.85265556 29.5335578,8.83234444 C29.26148,9.20782222 29.0609467,9.62664444 28.9413578,10.0694889 C28.8792134,10.0663556 28.8175912,10.0653111 28.7559689,10.0653111 C27.5433689,10.0653111 26.3950023,10.6496778 25.6826912,11.6298889 C25.3583912,12.0758667 25.1468912,12.5704111 25.04088,13.0780111 C25.1985912,13.3119667 25.3359356,13.5595 25.4508245,13.8185222 C25.7479689,13.8482889 26.0398912,13.9057333 26.3234578,13.9903333 C26.2936912,13.4514 26.44148,12.8983667 26.7824912,12.4294111 C27.2394356,11.8006556 27.9773356,11.4246556 28.7554467,11.4246556 C28.95128,11.4246556 29.1460689,11.4486778 29.3351134,11.4951556 C29.3889023,11.5082111 29.4432134,11.5144778 29.4970023,11.5144778 C29.6390467,11.5144778 29.7795245,11.4695667 29.8975467,11.3839222 C30.0594356,11.2664222 30.1612689,11.0831222 30.1753689,10.8841556 C30.2082689,10.4324333 30.3670245,9.99951111 30.63388,9.63186667 C31.0918689,9.00311111 31.8292467,8.62763333 32.6073578,8.62763333 C33.1238356,8.62763333 33.6173356,8.78847778 34.03668,9.09345556 C34.6163467,9.51488889 34.9803356,10.1687111 35.0336023,10.8862444 C35.0482245,11.0857333 35.1500578,11.2685111 35.3119467,11.3860111 C35.4299689,11.4711333 35.5699245,11.5160444 35.7124912,11.5160444 C35.7657578,11.5160444 35.8205912,11.5092556 35.87438,11.4967222 C36.0655134,11.4497222 36.2623912,11.4251778 36.4587467,11.4251778 C36.9736578,11.4251778 37.4687245,11.5865444 37.8875467,11.891 C38.9732467,12.6811222 39.2150356,14.2070556 38.4259578,15.2932778 C38.15858,15.6614444 37.7961578,15.9460556 37.3762912,16.1163 C37.1914245,16.1920222 37.0478134,16.3455556 36.9861912,16.5356444 C36.9240467,16.7262556 36.9496356,16.9346222 37.0546023,17.1048667 C37.5789134,17.9503444 37.5402689,19.0162 36.95538,19.8209444 C36.4989578,20.4491778 35.7610578,20.8246556 34.9829467,20.8246556 L34.9829467,20.8246556 C34.4659467,20.8246556 33.9719245,20.6638111 33.5531023,20.3593556 C33.3953912,20.2444667 33.2507356,20.1102556 33.1243578,19.9603778 C32.9943245,19.8073667 32.8047578,19.7191111 32.6042245,19.7191111 L32.6042245,19.7191111 C32.4036912,19.7191111 32.2136023,19.8073667 32.0851356,19.9603778 C31.6219245,20.5092333 30.9425134,20.8230889 30.2228912,20.8230889 C29.87248,20.8230889 29.5330356,20.7473667 29.21918,20.6048 C29.1006356,20.8445 28.9632912,21.0779333 28.80088,21.3014444 C28.6891245,21.4555 28.5690134,21.6001556 28.4405467,21.7380222 C28.9878356,22.0309889 29.5941356,22.184 30.2228912,22.184 C31.09918,22.184 31.9363023,21.8847667 32.6052689,21.3463556 C32.6543578,21.3855222 32.7034467,21.4231222 32.7546245,21.4602 C33.4074023,21.9349 34.17768,22.1860889 34.9834689,22.1860889 L34.9839912,22.1860889 C36.1955467,22.1860889 37.3449578,21.6006778 38.0572689,20.6204667 C38.8233689,19.5661 38.9878689,18.2234667 38.5356245,17.0390667 C38.9184134,16.7889222 39.2552467,16.4688 39.5278467,16.0933222 C40.7571578,14.3997556 40.3811578,12.0215556 38.6870689,10.7901556 L38.6870689,10.7901556 Z M13.0318578,20.6042778 C12.7185245,20.7468444 12.3754245,20.8246556 12.0234467,20.8246556 L12.0229245,20.8246556 C11.5069689,20.8246556 11.0129467,20.6643333 10.5941245,20.3593556 C10.4358912,20.2444667 10.2912356,20.1102556 10.1643356,19.9603778 C10.0353467,19.8073667 9.84578005,19.7191111 9.64576893,19.7191111 L9.64472449,19.7191111 C9.44471338,19.7191111 9.25462449,19.8073667 9.1256356,19.9603778 C8.66242449,20.5092333 7.98405782,20.8230889 7.26339116,20.8230889 C6.74848005,20.8230889 6.25341338,20.6627667 5.83511338,20.3577889 C4.80790227,19.6115333 4.52746893,18.1832556 5.19591338,17.1048667 C5.30192449,16.9351444 5.32699116,16.7267778 5.26536893,16.5366889 C5.20374671,16.3460778 5.06065782,16.1920222 4.87631338,16.1163 C4.6935356,16.0416222 4.52120227,15.9460556 4.36349116,15.8316889 C3.27674671,15.0420889 3.03548005,13.5151111 3.82455782,12.4288889 C4.28150227,11.8001333 5.01888005,11.4241333 5.79699116,11.4241333 C5.99282449,11.4241333 6.1881356,11.4481556 6.3761356,11.4946333 C6.43044671,11.5076889 6.4842356,11.5139556 6.53854671,11.5139556 C6.68111338,11.5139556 6.82211338,11.4690444 6.93909116,11.3834 C7.10150227,11.2659 7.2033356,11.0826 7.21691338,10.8836333 C7.2503356,10.4319111 7.40856893,9.99898889 7.67594671,9.63134444 C8.13289116,9.00258889 8.87026893,8.62711111 9.64942449,8.62711111 C10.1648578,8.62711111 10.6594023,8.78795556 11.0782245,9.09293333 C11.6584134,9.51436667 12.0229245,10.1681889 12.0751467,10.8857222 C12.0897689,11.0852111 12.1921245,11.2679889 12.3534912,11.3854889 C12.4715134,11.4706111 12.6109467,11.5155222 12.7535134,11.5155222 C12.8078245,11.5155222 12.8621356,11.5092556 12.9159245,11.4962 C13.1070578,11.4492 13.3039356,11.4246556 13.5008134,11.4246556 C14.0157245,11.4246556 14.5102689,11.5860222 14.9285689,11.8904778 C15.6210356,12.3939 15.96988,13.1970778 15.9270578,13.9950333 C16.2106245,13.9104333 16.5025467,13.8503778 16.7996912,13.8195667 C16.9124912,13.5626333 17.0498356,13.3166667 17.2085912,13.0821889 C17.02268,12.1918 16.51978,11.3651222 15.7280912,10.7891111 C15.0753134,10.3149333 14.3045134,10.0647889 13.5002912,10.0647889 C13.43658,10.0647889 13.3728689,10.0658333 13.30968,10.0694889 C13.0851245,9.23967778 12.5843134,8.50595556 11.8777467,7.99156667 C11.2249689,7.51738889 10.4536467,7.2662 9.64890227,7.2662 C8.43578005,7.2662 7.28689116,7.85161111 6.57458005,8.8313 C6.30198005,9.20677778 6.10144671,9.6256 5.9813356,10.0684444 C5.91971338,10.0653111 5.85861338,10.0642667 5.79646893,10.0642667 C4.58439116,10.0642667 3.43550227,10.6486333 2.72371338,11.6288444 C1.49335782,13.3224111 1.86988005,15.7016556 3.56344671,16.9314889 C3.61410227,16.9680444 3.66528005,17.0040778 3.71802449,17.0375 C3.1237356,18.6062556 3.63394671,20.4392556 5.03454671,21.4570667 C5.68784671,21.9312444 6.45864671,22.1824333 7.26339116,22.1824333 C8.14020227,22.1824333 8.97732449,21.8832 9.64576893,21.3447889 C9.69485782,21.3839556 9.74394671,21.4215556 9.79460227,21.4586333 C10.44738,21.9333333 11.2187023,22.1845222 12.0234467,22.1845222 L12.0239689,22.1845222 C12.6527245,22.1845222 13.2647689,22.0257667 13.8073578,21.7364556 C13.4898467,21.3949222 13.2308245,21.0121333 13.0318578,20.6042778 L13.0318578,20.6042778 Z M28.0473134,20.7552 C29.2776689,19.0611111 28.9006245,16.6823889 27.2081023,15.4520333 C26.5548023,14.9783778 25.7845245,14.7271889 24.97978,14.7271889 C24.9155467,14.7271889 24.85288,14.7287556 24.7891689,14.7324111 C24.5651356,13.9026 24.0643245,13.1688778 23.3577578,12.6544889 C22.7044578,12.1803111 21.9331356,11.9291222 21.1283912,11.9291222 C19.9157912,11.9291222 18.76638,12.5140111 18.0540689,13.4942222 C17.7814689,13.8697 17.5814578,14.2885222 17.4613467,14.7308444 C17.4002467,14.7282333 17.3381023,14.7266667 17.27648,14.7266667 C16.0633578,14.7266667 14.9144689,15.3115556 14.2021578,16.2912444 C12.9723245,17.9853333 13.3493689,20.3640556 15.0424134,21.5938889 C15.0930689,21.6304444 15.1442467,21.667 15.1969912,21.7009444 C14.6027023,23.2686556 15.1129134,25.1021778 16.5140356,26.1194667 C17.1662912,26.5941667 17.9370912,26.8453556 18.7418356,26.8453556 C19.6191689,26.8453556 20.4557689,26.5466444 21.1242134,26.0077111 C21.1733023,26.0468778 21.2223912,26.085 21.2730467,26.1220778 C21.9263467,26.5957333 22.6971467,26.8464 23.5018912,26.8464 L23.5018912,26.8464 C24.7150134,26.8464 25.8644245,26.2620333 26.5767356,25.2818222 C27.3423134,24.2274556 27.5068134,22.8848222 27.0545689,21.7009444 C27.4384023,21.4497556 27.7747134,21.1296333 28.0473134,20.7552 L28.0473134,20.7552 Z M26.9464689,19.9556778 C26.6796134,20.3228 26.3166689,20.6074111 25.8968023,20.7781778 C25.7119356,20.8539 25.5693689,21.0069111 25.5072245,21.1980444 C25.44508,21.3881333 25.4701467,21.5970222 25.5761578,21.7667444 C26.0999467,22.6117 26.0602578,23.6780778 25.4764134,24.4817778 C25.0194689,25.1110556 24.2815689,25.4865333 23.5029356,25.4865333 L23.5029356,25.4865333 C22.9875023,25.4865333 22.4929578,25.3256889 22.0746578,25.0212333 C21.9164245,24.9068667 21.7717689,24.7721333 21.6443467,24.6217333 C21.51588,24.4692444 21.3257912,24.3804667 21.12578,24.3804667 L21.1252578,24.3804667 C20.9247245,24.3815111 20.7351578,24.4692444 20.6056467,24.6227778 C20.1424356,25.1711111 19.4640689,25.4849667 18.7434023,25.4849667 C18.2284912,25.4849667 17.7339467,25.3241222 17.3156467,25.0191444 C16.2884356,24.2734111 16.0080023,22.8446111 16.6769689,21.7667444 C16.7819356,21.5965 16.8075245,21.3886556 16.7459023,21.1980444 C16.68428,21.0074333 16.5411912,20.8544222 16.3558023,20.7781778 C16.1730245,20.7029778 16.0012134,20.6074111 15.8440245,20.4930444 C14.7567578,19.7034444 14.5154912,18.1764667 15.3050912,17.0902444 C15.7615134,16.4620111 16.4988912,16.0865333 17.2780467,16.0865333 C17.4728356,16.0865333 17.6676245,16.1095111 17.8566689,16.1559889 C17.9104578,16.1690444 17.9647689,16.1753111 18.0196023,16.1753111 C18.1616467,16.1753111 18.3021245,16.1309222 18.4196245,16.0458 C18.5809912,15.9272556 18.6833467,15.745 18.6979689,15.5449889 C18.7303467,15.0932667 18.88858,14.6608667 19.1559578,14.2937444 C19.6129023,13.6644667 20.3513245,13.2889889 21.1294356,13.2889889 C21.6448689,13.2889889 22.1399356,13.4503556 22.5582356,13.7542889 C23.1389467,14.1762444 23.5029356,14.8295444 23.55568,15.5470778 C23.56978,15.7465667 23.6721356,15.9298667 23.8340245,16.0473667 C23.9510023,16.1324889 24.09148,16.1768778 24.2335245,16.1768778 C24.2878356,16.1768778 24.3416245,16.1706111 24.3959356,16.1575556 C24.5870689,16.1110778 24.7839467,16.0870556 24.9808245,16.0870556 C25.4962578,16.0870556 25.99028,16.2484222 26.40858,16.5523556 C27.4937578,17.3424778 27.7355467,18.8689333 26.9464689,19.9556778 L26.9464689,19.9556778 Z M23.3420912,16.7231222 C22.6940134,16.2520778 21.9284356,16.0029778 21.1283912,16.0029778 C19.9236245,16.0029778 18.7825689,16.5836889 18.0744356,17.5576333 C17.4827578,18.3728222 17.2430578,19.3697444 17.4002467,20.3645778 C17.55848,21.3588889 18.0937578,22.2330889 18.9089467,22.8258111 C19.5575467,23.2968556 20.3231245,23.5459556 21.1231689,23.5459556 C22.3274134,23.5459556 23.4695134,22.9647222 24.1766023,21.9913 C25.3991245,20.3087 25.0246912,17.9456444 23.3420912,16.7231222 L23.3420912,16.7231222 Z M23.0757578,21.1917778 C22.6235134,21.8137444 21.8934467,22.1855667 21.1231689,22.1855667 C20.6124356,22.1855667 20.1236356,22.0257667 19.7084689,21.7244444 C19.1878134,21.3458333 18.8457578,20.7875778 18.7444467,20.1515111 C18.6431356,19.5154444 18.7966689,18.8783333 19.1747578,18.3566333 C19.6275245,17.7346667 20.3570689,17.3633667 21.1278689,17.3633667 C21.6386023,17.3633667 22.12688,17.5226444 22.5425689,17.8234444 C23.6178245,18.6052111 23.8570023,20.116 23.0757578,21.1917778 L23.0757578,21.1917778 Z" id="Shape"></path>
            </g>
        </g>
    </g>
</svg>