<?xml version="1.0" encoding="UTF-8" standalone="no"?>
<svg width="140px" height="140px" viewBox="0 0 140 140" version="1.1" xmlns="http://www.w3.org/2000/svg" xmlns:xlink="http://www.w3.org/1999/xlink">
    <!-- Generator: sketchtool 3.6.1 (26313) - http://www.bohemiancoding.com/sketch -->
    <title>Group</title>
    <desc>Created with sketchtool.</desc>
    <defs></defs>
    <g id="Page-1" stroke="none" stroke-width="1" fill="none" fill-rule="evenodd">
        <g id="Added-to-cart" transform="translate(-829.000000, -765.000000)" fill="#1EB800">
            <g id="Group-3" transform="translate(614.000000, 716.000000)">
                <g id="noun_152964_cc" transform="translate(215.000000, 49.000000)">
                    <g id="Group">
                        <g id="Shape">
                            <path d="M70,0.0497857143 C31.4300952,0.0497857143 0.0497857143,31.4300952 0.0497857143,70 C0.0497857143,108.569905 31.4300952,139.950214 70,139.950214 C108.569905,139.950214 139.950214,108.569905 139.950214,70 C139.950214,31.4300952 108.569905,0.0497857143 70,0.0497857143 L70,0.0497857143 Z M70,135.287881 C34.0013095,135.287881 4.71211905,106.000381 4.71211905,70 C4.71211905,34.0013095 34.0013095,4.71211905 70,4.71211905 C106.000381,4.71211905 135.287881,33.999619 135.287881,70 C135.287881,106.000381 106.000381,135.287881 70,135.287881 L70,135.287881 Z"></path>
                            <path d="M55.7645,94.9074762 L29.0380714,67.5133095 L25.408619,71.0548571 L55.7188571,102.12581 L114.569405,43.2752619 L110.983905,39.6897619 L55.7645,94.9074762 Z"></path>
                        </g>
                    </g>
                </g>
            </g>
        </g>
    </g>
</svg>