<?xml version="1.0" encoding="UTF-8" standalone="no"?>
<svg width="54px" height="54px" viewBox="0 0 54 54" version="1.1" xmlns="http://www.w3.org/2000/svg" xmlns:xlink="http://www.w3.org/1999/xlink">
    <!-- Generator: Sketch 3.6.1 (26313) - http://www.bohemiancoding.com/sketch -->
    <title>noun_216364_cc</title>
    <desc>Created with Sketch.</desc>
    <defs></defs>
    <g id="Page-1" stroke="none" stroke-width="1" fill="none" fill-rule="evenodd">
        <g id="iPhone-5/5S/5C" transform="translate(-255.000000, -616.000000)" fill="#51246E">
            <g id="noun_216364_cc" transform="translate(255.000000, 616.000000)">
                <g id="To-Top-Outline-1">
                    <g id="Group">
                        <path d="M46.8,0 L7.2,0 C3.24,0 0,3.24 0,7.2 L0,46.8 C0,50.76 3.24,54 7.2,54 L46.8,54 C50.76,54 54,50.76 54,46.8 L54,7.2 C54,3.24 50.76,0 46.8,0 L46.8,0 Z M51.6,46.8 C51.6,49.44 49.44,51.6 46.8,51.6 L7.2,51.6 C4.56,51.6 2.4,49.44 2.4,46.8 L2.4,7.2 C2.4,4.56 4.56,2.4 7.2,2.4 L46.8,2.4 C49.44,2.4 51.6,4.56 51.6,7.2 L51.6,46.8 L51.6,46.8 Z" id="Shape"></path>
                        <path d="M27.24,17.76 C26.76,17.28 26.04,17.28 25.56,17.76 L17.76,25.56 C17.28,26.04 17.28,26.76 17.76,27.24 C18.24,27.72 18.96,27.72 19.44,27.24 L25.2,21.48 L25.2,42.3 C25.2,42.96 25.74,43.5 26.4,43.5 C27.06,43.5 27.6,42.96 27.6,42.3 L27.6,21.48 L33.36,27.24 C33.84,27.72 34.56,27.72 35.04,27.24 C35.52,26.76 35.52,26.04 35.04,25.56 L27.24,17.76 L27.24,17.76 Z" id="Shape"></path>
                        <path d="M35.4,11.4 L17.4,11.4 C16.74,11.4 16.2,11.94 16.2,12.6 C16.2,13.26 16.74,13.8 17.4,13.8 L35.4,13.8 C36.06,13.8 36.6,13.26 36.6,12.6 C36.6,11.94 36.06,11.4 35.4,11.4 L35.4,11.4 Z" id="Shape"></path>
                    </g>
                </g>
            </g>
        </g>
    </g>
</svg>