<?xml version="1.0" encoding="UTF-8" standalone="no"?>
<svg width="56px" height="56px" viewBox="0 0 56 56" version="1.1" xmlns="http://www.w3.org/2000/svg" xmlns:xlink="http://www.w3.org/1999/xlink">
    <!-- Generator: Sketch 3.6.1 (26313) - http://www.bohemiancoding.com/sketch -->
    <title>noun_216355_cc</title>
    <desc>Created with Sketch.</desc>
    <defs></defs>
    <g id="Page-1" stroke="none" stroke-width="1" fill="none" fill-rule="evenodd" opacity="0.54191931">
        <g id="iPhone-5/5S/5C" transform="translate(-257.000000, -484.000000)" fill="#210434">
            <g id="noun_216355_cc" transform="translate(257.000000, 484.000000)">
                <g id="Group">
                    <path d="M48.5333333,0 L7.46666667,0 C3.36,0 0,3.36 0,7.46666667 L0,48.5333333 C0,52.64 3.36,56 7.46666667,56 L48.5333333,56 C52.64,56 56,52.64 56,48.5333333 L56,7.46666667 C56,3.36 52.64,0 48.5333333,0 L48.5333333,0 Z M36.3377778,28.2488889 C35.84,28.7466667 35.0933333,28.7466667 34.5955556,28.2488889 L28.6222222,22.2755556 L28.6222222,43.8666667 C28.6222222,44.5511111 28.0622222,45.1111111 27.3777778,45.1111111 C26.6933333,45.1111111 26.1333333,44.5511111 26.1333333,43.8666667 L26.1333333,22.2755556 L20.16,28.2488889 C19.6622222,28.7466667 18.9155556,28.7466667 18.4177778,28.2488889 C17.92,27.7511111 17.92,27.0044444 18.4177778,26.5066667 L26.5066667,18.4177778 C27.0044444,17.92 27.7511111,17.92 28.2488889,18.4177778 L36.3377778,26.5066667 C36.8355556,27.0044444 36.8355556,27.7511111 36.3377778,28.2488889 L36.3377778,28.2488889 Z M36.7111111,14.3111111 L18.0444444,14.3111111 C17.36,14.3111111 16.8,13.7511111 16.8,13.0666667 C16.8,12.3822222 17.36,11.8222222 18.0444444,11.8222222 L36.7111111,11.8222222 C37.3955556,11.8222222 37.9555556,12.3822222 37.9555556,13.0666667 C37.9555556,13.7511111 37.3955556,14.3111111 36.7111111,14.3111111 L36.7111111,14.3111111 Z" id="Shape"></path>
                </g>
            </g>
        </g>
    </g>
</svg>