<?xml version="1.0" encoding="UTF-8" standalone="no"?>
<svg width="50px" height="43px" viewBox="0 0 50 43" version="1.1" xmlns="http://www.w3.org/2000/svg" xmlns:xlink="http://www.w3.org/1999/xlink">
    <!-- Generator: sketchtool 3.6.1 (26313) - http://www.bohemiancoding.com/sketch -->
    <title>Shape</title>
    <desc>Created with sketchtool.</desc>
    <defs></defs>
    <g id="Page-1" stroke="none" stroke-width="1" fill="none" fill-rule="evenodd">
        <g id="Main" transform="translate(-1089.000000, -3592.000000)" fill="#FFFFFF">
            <g id="Group-4" transform="translate(1089.000000, 3592.000000)">
                <g id="noun_102545_cc">
                    <g id="Group">
                        <path d="M25,42.5473684 C24,42.5473684 23.1111111,42.1513158 22.3888889,41.4723684 L5.33333333,24.0460526 C3,21.6697368 0.388888889,17.3697368 0.555555556,13.1828947 C0.833333333,6.39342105 6.33333333,0.792105263 13,0.452631579 C18,0.226315789 22.6111111,2.82894737 25,7.18552632 C27.3888889,2.88552632 31.9444444,0.226315789 37,0.452631579 C43.6111111,0.792105263 49.0555556,6.28026316 49.4444444,13.0131579 C49.6666667,17.2 46.8888889,21.7828947 44.9444444,23.8197368 L27.6111111,41.4723684 C26.9444444,42.1513158 26,42.5473684 25,42.5473684 L25,42.5473684 Z M13.6111111,2.15 L13.0555556,2.15 C7.27777778,2.43289474 2.5,7.29868421 2.22222222,13.2394737 C2.05555556,17.1434211 4.83333333,21.1605263 6.5,22.8578947 L23.6111111,40.2842105 C24.3888889,41.0763158 25.6666667,41.0763158 26.4444444,40.2842105 L43.7222222,22.6315789 C45.3888889,20.8776316 47.9444444,16.7473684 47.7222222,13.1263158 C47.3888889,7.24210526 42.6111111,2.43289474 36.8888889,2.20657895 C31.9444444,1.98026316 27.5555556,4.86578947 25.7222222,9.50526316 C25.6111111,9.84473684 25.2777778,10.0144737 24.9444444,10.0144737 C24.6111111,10.0144737 24.2777778,9.78815789 24.1666667,9.50526316 C22.5,5.03552632 18.3333333,2.15 13.6111111,2.15 L13.6111111,2.15 Z" id="Shape"></path>
                    </g>
                </g>
            </g>
        </g>
    </g>
</svg>