<?xml version="1.0" encoding="UTF-8" standalone="no"?>
<svg width="13px" height="15px" viewBox="0 0 13 15" version="1.1" xmlns="http://www.w3.org/2000/svg" xmlns:xlink="http://www.w3.org/1999/xlink">
    <!-- Generator: sketchtool 3.6.1 (26313) - http://www.bohemiancoding.com/sketch -->
    <title>1459520713_shop</title>
    <desc>Created with sketchtool.</desc>
    <defs></defs>
    <g id="Page-1" stroke="none" stroke-width="1" fill="none" fill-rule="evenodd">
        <g id="Main" transform="translate(-1455.000000, -48.000000)" fill="#666666">
            <g id="1459520713_shop" transform="translate(1455.000000, 48.000000)">
                <g id="svg6584">
                    <g id="layer1" transform="translate(0.000000, 0.127123)">
                        <path d="M5.23046875,0.188363636 C4.38411452,0.188363636 3.63410937,1.02398007 3.53776048,1.84880299 L3.24682617,4.33946102 L1.84505202,4.33946102 C1.421875,4.33946102 0.998697984,4.75457036 0.998697984,5.1696797 L0.15234375,13.4718804 C0.15234375,13.8869838 0.575520766,14.3021071 0.998697984,14.3021071 L12.0013022,14.3021071 C12.4244792,14.3021071 12.8476562,13.8869838 12.8476562,13.4718804 L12.0013022,5.1696797 C12.0013022,4.75457036 11.578125,4.33946102 11.154948,4.33946102 L9.75317383,4.33946102 L9.46223972,1.84880299 C9.36589062,1.02398007 8.61588548,0.188363636 7.76953125,0.188363636 L5.23046875,0.188363636 Z M5.23046875,1.01858232 L7.76953125,1.01858232 C8.19270847,1.01858232 8.56771094,1.43643138 8.61588548,1.84880299 L8.9068198,4.33946102 L4.09318041,4.33946102 L4.38411452,1.84880299 C4.4322722,1.43643138 4.80729173,1.01858232 5.23046875,1.01858232 L5.23046875,1.01858232 Z" id="rect13131-6"></path>
                    </g>
                </g>
            </g>
        </g>
    </g>
</svg>