<?xml version="1.0" encoding="UTF-8" standalone="no"?>
<svg width="12px" height="12px" viewBox="0 0 12 12" version="1.1" xmlns="http://www.w3.org/2000/svg" xmlns:xlink="http://www.w3.org/1999/xlink">
    <!-- Generator: sketchtool 3.6.1 (26313) - http://www.bohemiancoding.com/sketch -->
    <title>telephone66</title>
    <desc>Created with sketchtool.</desc>
    <defs></defs>
    <g id="Page-1" stroke="none" stroke-width="1" fill="none" fill-rule="evenodd">
        <g id="Main" transform="translate(-313.000000, -13.000000)" fill="#FFFFFF">
            <g id="telephone66" transform="translate(313.000000, 13.000000)">
                <path d="M11.3044272,8.92820433 C11.2742415,8.83736842 11.0825387,8.70362229 10.7293189,8.5271517 C10.6336533,8.47160991 10.4973065,8.39600619 10.3209288,8.3001548 C10.1442724,8.20430341 9.98405573,8.11597523 9.84037152,8.03517028 C9.69650155,7.95455108 9.56154799,7.87625387 9.43551084,7.80074303 C9.41535604,7.78560372 9.35229102,7.74148607 9.24631579,7.66829721 C9.14034056,7.59520124 9.05089783,7.54095975 8.9776161,7.50557276 C8.90452012,7.47027864 8.83263158,7.45263158 8.76195046,7.45263158 C8.66108359,7.45263158 8.53504644,7.52452012 8.38374613,7.66829721 C8.23244582,7.8120743 8.09368421,7.96839009 7.96764706,8.13752322 C7.84151703,8.30656347 7.70786378,8.46287926 7.56668731,8.60665635 C7.42541796,8.75052632 7.30931889,8.82232198 7.21857585,8.82232198 C7.17315789,8.82232198 7.11631579,8.8096904 7.04823529,8.784613 C6.98024768,8.75944272 6.92851393,8.73780186 6.89303406,8.72034056 C6.85783282,8.70260062 6.79736842,8.66739938 6.71154799,8.61427245 C6.62563467,8.56133127 6.57780186,8.53226006 6.5677709,8.5271517 C5.87665635,8.14374613 5.28390093,7.70479876 4.78950464,7.21049536 C4.29520124,6.71609907 3.85625387,6.12334365 3.4728483,5.4322291 C3.46783282,5.42210526 3.43876161,5.37417957 3.38582043,5.28845201 C3.33278638,5.20263158 3.29749226,5.14216718 3.2798452,5.10678019 C3.26219814,5.07148607 3.24074303,5.01975232 3.21557276,4.95167183 C3.19040248,4.88359133 3.1777709,4.82684211 3.1777709,4.78142415 C3.1777709,4.69068111 3.24965944,4.57458204 3.39343653,4.43331269 C3.53721362,4.29213622 3.69362229,4.15839009 3.86256966,4.03235294 C4.03160991,3.90631579 4.1879257,3.76755418 4.33170279,3.61625387 C4.47547988,3.46486068 4.54736842,3.33882353 4.54736842,3.23795666 C4.54736842,3.16736842 4.52972136,3.095387 4.49442724,3.02229102 C4.45913313,2.94900929 4.40489164,2.85956656 4.33170279,2.75359133 C4.25851393,2.6476161 4.21439628,2.58464396 4.19925697,2.56439628 C4.12365325,2.43835913 4.0455418,2.30340557 3.96473684,2.15962848 C3.88393189,2.01585139 3.79569659,1.85563467 3.6998452,1.67907121 C3.60399381,1.50260062 3.52839009,1.36634675 3.4728483,1.27049536 C3.29628483,0.9174613 3.16263158,0.725665635 3.07179567,0.695479876 C3.03650155,0.680340557 2.98346749,0.672724458 2.91287926,0.672724458 C2.77662539,0.672724458 2.59885449,0.697894737 2.3793808,0.748421053 C2.15990712,0.798854489 1.9871517,0.851795666 1.86102167,0.907337461 C1.60876161,1.01321981 1.34145511,1.32092879 1.05891641,1.83037152 C0.801640867,2.30452012 0.673003096,2.77374613 0.673003096,3.23786378 C0.673003096,3.37393189 0.681826625,3.50637771 0.699473684,3.63510836 C0.717120743,3.76374613 0.74869969,3.90882353 0.794117647,4.07024768 C0.839535604,4.23167183 0.876130031,4.35157895 0.90380805,4.4296904 C0.931486068,4.50780186 0.983219814,4.6477709 1.05891641,4.84959752 C1.13452012,5.05142415 1.17993808,5.17495356 1.1950774,5.22037152 C1.37164087,5.7147678 1.58099071,6.15613003 1.82312693,6.54464396 C2.22148607,7.19034056 2.76510836,7.85758514 3.45371517,8.54619195 C4.14232198,9.23479876 4.80947368,9.77842105 5.45526316,10.1769659 C5.84368421,10.4190093 6.2852322,10.628452 6.7795356,10.8051084 C6.82495356,10.8201548 6.94857585,10.8655728 7.1503096,10.9413622 C7.35204334,11.0169659 7.49210526,11.0686997 7.57021672,11.0964706 C7.64832817,11.1242415 7.76823529,11.1608359 7.92956656,11.2062539 C8.09117647,11.2516718 8.23616099,11.2832508 8.36479876,11.3009907 C8.49343653,11.318452 8.62588235,11.3274613 8.76204334,11.3274613 C9.22606811,11.3274613 9.69529412,11.1987307 10.1695356,10.941548 C10.6788854,10.6590093 10.9865944,10.3916099 11.0925697,10.139257 C11.1482043,10.0133127 11.2010526,9.8404644 11.2514861,9.62099071 C11.3020124,9.40160991 11.3271827,9.22383901 11.3271827,9.08758514 C11.3272755,9.01671827 11.3196594,8.96377709 11.3044272,8.92820433 L11.3044272,8.92820433 Z" id="Shape"></path>
            </g>
        </g>
    </g>
</svg>